<svg xmlns="http://www.w3.org/2000/svg" viewBox="28 159 344 238" role="img"><title>Nipper standing companion cutout</title><g><ellipse cx="176" cy="374" rx="17" ry="11" fill="#F79280" stroke="#B02D1B" stroke-width="2.5" /><ellipse cx="224" cy="374" rx="17" ry="11" fill="#F79280" stroke="#B02D1B" stroke-width="2.5" /><g><g transform="translate(84 296) scale(1.45 1.45)"><path d="M16 6 L-1 0" fill="none" stroke="#B02D1B" stroke-width="8" stroke-linecap="round" /><ellipse cx="-15" cy="-7" rx="16" ry="8.5" fill="#F98D77" stroke="#B02D1B" stroke-width="2.5" transform="rotate(-24 -15 -7)" /><ellipse cx="-13" cy="8" rx="13" ry="7" fill="#F98D77" stroke="#B02D1B" stroke-width="2.5" transform="rotate(20 -13 8)" /></g></g><g><g transform="translate(316 296) scale(-1.45 1.45)"><path d="M16 6 L-1 0" fill="none" stroke="#B02D1B" stroke-width="8" stroke-linecap="round" /><ellipse cx="-15" cy="-7" rx="16" ry="8.5" fill="#F98D77" stroke="#B02D1B" stroke-width="2.5" transform="rotate(-24 -15 -7)" /><ellipse cx="-13" cy="8" rx="13" ry="7" fill="#F98D77" stroke="#B02D1B" stroke-width="2.5" transform="rotate(20 -13 8)" /></g></g><defs><radialGradient id="nipper-gNipper-s4" cx="42%" cy="34%" r="72%"><stop offset="0" stop-color="#F98D77" /><stop offset="1" stop-color="#D64328" /></radialGradient></defs><g><path d="M132 332 l-30 20 M144 350 l-26 22 M268 332 l30 20 M256 350 l26 22" fill="none" stroke="#B02D1B" stroke-width="10" stroke-linecap="round" /><path d="M100 300 C100 256 144 236 200 236 C256 236 300 256 300 300 C300 336 256 356 200 356 C144 356 100 336 100 300 Z" fill="url(#nipper-gNipper-s4)" stroke="#B02D1B" stroke-width="3" /><path d="M128 288 q72 -26 144 0" fill="none" stroke="#B02D1B" stroke-width="2.5" opacity=".4" /></g><g transform="translate(200 324) scale(0.58) translate(-200 -324)"><rect x="158" y="314" width="84" height="46" rx="7" fill="#FFF1EB" stroke="#8E2313" stroke-width="2.5" /><path d="M170 328 h60 M170 338 h44 M170 348 h52" stroke="#8E2313" stroke-width="2.5" stroke-linecap="round" opacity=".55" /></g><g><ellipse cx="146" cy="290" rx="15" ry="10" fill="#F2A7A0" opacity=".8" /><ellipse cx="254" cy="290" rx="15" ry="10" fill="#F2A7A0" opacity=".8" /><g><ellipse cx="172" cy="274" rx="8.5" ry="11" fill="#4A3018" /></g><g><ellipse cx="228" cy="274" rx="8.5" ry="11" fill="#4A3018" /></g><path d="M188 296 Q200 307 212 296" fill="none" stroke="#4A3018" stroke-width="4" stroke-linecap="round" /></g><g><path d="M176 244 C170 220 168 206 166 196" fill="none" stroke="#C8321E" stroke-width="9" stroke-linecap="round" /><path d="M224 244 C230 220 232 206 234 196" fill="none" stroke="#C8321E" stroke-width="9" stroke-linecap="round" /><circle cx="165" cy="190" r="12" fill="#F98D77" stroke="#B02D1B" stroke-width="2.5" /><circle cx="235" cy="190" r="12" fill="#F98D77" stroke="#B02D1B" stroke-width="2.5" /><path d="M235 180 q12 -12 22 -5" fill="none" stroke="#C8321E" stroke-width="6" stroke-linecap="round" /></g><g /></g></svg>